PathFileType	4	(X/Y/Z)	Patient4_TMGait_0pt5_01_left_35.trc.trc
DataRate	CameraRate	NumFrames	NumMarkers	Units	OrigDataRate	OrigDataStartFrame	OrigNumFrames
74.468085106383	74.468085106383	5	33	mm	74.468085106383	89	       141
Frame#	Time	L.ASIS			Sacral			L.Shoulder			Chest			R.Shoulder			Neck			R.ASIS			R.Thigh.Superior			R.Thigh.Lateral			R.Thigh.Inferior			R.Patella			L.Thigh.Superior			L.Thigh.Lateral			L.Thigh.Inferior			L.Patella			L.Shank.Superior			L.Shank.Lateral			L.Shank.Inferior			R.Shank.Superior			R.Shank.Lateral			R.Shank.Inferior			R.Heel			R.Midfoot.Superior			R.Midfoot.Lateral			R.Toe			L.Heel			L.Midfoot.Lateral			L.Midfoot.Superior			L.Toe			L.Elbow			L.Wrist			R.Elbow			R.Wrist			
		X1	Y1	Z1	X2	Y2	Z2	X3	Y3	Z3	X4	Y4	Z4	X5	Y5	Z5	X6	Y6	Z6	X7	Y7	Z7	X8	Y8	Z8	X9	Y9	Z9	X10	Y10	Z10	X11	Y11	Z11	X12	Y12	Z12	X13	Y13	Z13	X14	Y14	Z14	X15	Y15	Z15	X16	Y16	Z16	X17	Y17	Z17	X18	Y18	Z18	X19	Y19	Z19	X20	Y20	Z20	X21	Y21	Z21	X22	Y22	Z22	X23	Y23	Z23	X24	Y24	Z24	X25	Y25	Z25	X26	Y26	Z26	X27	Y27	Z27	X28	Y28	Z28	X29	Y29	Z29	X30	Y30	Z30	X31	Y31	Z31	X32	Y32	Z32	X33	Y33	Z33	

89	47.791714285714	813.100537705150	954.987025245473	335.338994573286	597.722516806582	993.367585102147	490.258125426958	761.675934083705	1429.414222034258	315.488193851726	858.497185170750	1360.664558819451	481.045571116941	762.241106317440	1431.682843107964	650.953639951788	757.436013009168	1489.625497406481	466.285893146615	826.500057870332	937.321514726965	610.515046840350	892.806374090226	750.978498309281	577.361086813113	829.205661685511	632.678590966602	639.672313538665	913.001280088930	589.961678080099	559.233084394760	926.995616960990	499.153499416652	567.547820723509	832.133321195985	728.426469354054	356.705104279171	725.000739056953	625.511617305504	296.642886381007	799.321324041395	532.663963830184	352.656303558884	785.406128986609	451.478732464567	353.089598526537	723.438675620227	393.570678904653	348.869724138471	589.589914050196	332.706220274347	301.254986332060	589.863101338497	205.901507333525	363.485651698884	901.115129786436	408.171863338207	576.224973766326	833.389604343794	302.348376269262	638.464025353271	880.841679991506	208.808343114533	578.457352346420	752.352716812887	42.110528522659	549.053720118189	922.268249879378	99.050809843503	587.030043513619	834.782090072861	36.351590280419	625.057927415786	1041.841473122137	50.258143686410	616.376704069966	409.824730907413	105.776989118230	403.387406508686	477.345171957641	71.552202111691	326.648004055154	575.459605207143	107.032370328324	347.471499217284	678.581219513293	34.687718306107	328.416633955124	756.368787918043	1087.869260288254	168.647807451667	937.887067966099	897.471508967839	160.579676098395	679.891037159720	1096.095203335744	766.623904023951	743.132631688322	842.765270151210	781.701964150857	
90	47.805142857143	813.429364972042	955.588756155158	337.878473225733	598.926093924750	993.843563445480	494.100461697008	760.537210945039	1430.429479972795	318.769167829298	859.010028704901	1361.604365611739	483.363403388817	764.032265943444	1431.994200232744	654.179899342760	757.455047842382	1490.295500898065	469.783728275247	828.574797936384	938.304312542390	612.835054719252	893.229867477573	750.066529463569	579.904153944098	828.275668893516	632.577212942744	641.709843162581	911.225529928620	589.135585229829	560.750130445453	924.222820580056	498.278133702195	568.477108400027	837.662834807291	730.183361514955	358.794944275774	734.319182080645	624.828146504367	298.049650348677	811.756434614848	533.280756001649	353.371284621600	798.769051658371	450.649513821016	352.533074669704	734.213583840798	393.229805884461	348.742117483234	597.858574227345	337.875487606233	301.536366737705	593.690018196226	210.837902276949	362.810461905960	897.618258379792	407.432744379700	577.145758161348	829.373846605148	301.968496984332	639.359806470476	875.576150075044	208.275831257669	578.787489158197	745.816087991376	42.116030104424	549.182207877390	915.843638131622	98.940430926393	587.176558576264	828.209099373457	36.348804243962	625.211041952260	1035.360495667963	49.934269993855	616.451789494425	409.866860076659	120.316838641231	402.794782779808	474.917943889435	81.425967577759	326.289488169128	574.870598586043	110.934924481452	346.578999649733	672.141941521590	33.721055825406	328.351557107070	750.030451416401	1087.952813551076	173.932141420283	922.175355156604	888.639373708064	165.218364125312	689.810710545066	1094.415992464574	771.155791982567	764.164614243572	844.112845856166	784.733842449740	
91	47.818571428571	813.581631662105	955.991618740230	340.373998638637	599.913465005834	994.231645653654	497.848445323341	759.272929413342	1431.230116313008	321.943172776452	859.472495970463	1362.359578544391	485.525260616564	765.906035636226	1432.177290968175	657.301234616725	757.414374747505	1490.802370363266	473.164535888187	830.435160985075	939.122389012963	615.121359204118	893.409424183573	749.092229279590	582.597709547883	827.068280519035	632.413537638379	643.872514072675	909.294710931686	588.275686446386	562.530392291549	921.285814775626	497.383663469739	569.731618783312	843.328618294093	732.135646580854	360.948930320793	744.208403122523	624.310147129238	299.275407047666	824.666123271263	534.293421429541	354.163312328402	812.693870365902	450.279857003930	352.189479575926	745.801037255490	393.227041996690	348.675110035164	607.202089364993	343.436402368813	301.757040287185	598.500150711800	216.423900680065	362.237400067590	893.973859723320	406.673860863805	578.297459929852	825.183398231756	301.532244139473	640.363301586468	870.238865852208	207.730025992135	579.252898293974	739.247481763778	42.146459147700	549.314270203267	909.431978908875	98.796046426595	587.368937779256	821.606476422961	36.328356822374	625.371713584457	1028.878787646872	49.433546042967	616.547275393568	411.233076348257	136.040824724004	402.244617817423	473.543625057395	92.564850389424	325.941038964737	575.122080785184	115.697292852682	345.830724864195	666.091449334896	32.723870552300	328.252399099772	743.374369646477	1087.948080773415	179.102378331213	905.750866264545	880.281370006095	169.928428357395	700.044707805380	1092.826056956246	775.611054215736	785.814465078834	846.189186512666	787.403434535110	
92	47.832000000000	813.538125650242	956.194484477740	342.774289358483	600.658906188434	994.522488091256	501.458797752825	757.915791156784	1431.817658149216	324.991406427162	859.885442721027	1362.904750251231	487.516967412743	767.856082434776	1432.220728724946	660.294225825089	757.350356880528	1491.148234283289	476.404737756879	832.057527587598	939.780113111097	617.346215858373	893.355846193262	748.115674892143	585.350264574207	825.664705721460	632.217073161732	646.114858812237	907.275670460186	587.415568141869	564.515333764494	918.254866684996	496.483841776631	571.271964466967	849.001380858092	734.319190142706	363.164218113972	754.459662076029	624.055657812886	300.346471311809	837.791922166581	535.781220345361	355.052969877682	826.957171241501	450.456518558079	352.085486413287	757.995771707591	393.633722392316	348.704681629306	617.433942248105	349.313303771761	301.966817778552	604.235360133216	222.547278347760	361.820779118610	890.243144650084	405.910711934934	579.646941223164	820.865500709425	301.072799661228	641.463760647283	864.858622677878	207.182520624466	579.843287534777	732.645091384247	42.204569680502	549.460939601573	903.029921895098	98.621142422799	587.612893745463	814.973511342332	36.297635584387	625.547415363332	1022.390743474576	48.777514001332	616.671380488168	413.969270371078	152.463668626437	401.799217036657	473.380468236881	104.655225418173	325.646786585131	576.312481545555	121.263813878201	345.271045172916	660.743781625171	31.797861423269	328.122798929288	736.414261281422	1087.850589372973	184.165614616293	888.692159547926	872.453729624199	174.691158964824	710.587161380081	1091.335060666623	779.944808024666	807.964155189710	849.031112747725	789.656568356131	
93	47.845428571429	813.291031104042	956.231237966177	345.034197157303	601.152579714384	994.729361237052	504.899025219262	756.496434726990	1432.224726126782	327.900105041494	860.247807380096	1363.246655137951	489.329283927482	769.869741970865	1432.138720266414	663.139445075301	757.300266179872	1491.360054841215	479.485438598983	833.427284423731	940.303565803262	619.478398574573	893.066935169007	747.187016743417	588.078860266917	824.101396773649	632.014595449064	648.381599064218	905.191116878246	586.580715241871	566.636749962229	915.154903020224	495.593452342758	573.033567464721	854.549348158990	736.773554450039	365.426198277728	764.833048751243	624.165681617182	301.292843590790	850.867998513220	537.816281773349	356.030978224935	841.325629790761	451.258205051487	352.200568447618	770.578781875203	394.516147917348	348.838592077357	628.338638987054	355.394309943609	302.207567848108	610.844118984044	229.033740032888	361.594356674668	886.448603641896	405.163435683310	581.143969997391	816.436272334310	300.623283160460	642.632018196332	859.445327828017	206.650782169312	580.538693668540	726.012105182100	42.290439700624	549.629077430085	896.630546281857	98.426390338185	587.907489429325	808.314086429607	36.264388537987	625.741167460170	1015.891337957670	48.008051743407	616.829282305449	418.089648014661	168.953019780364	401.518357279596	474.590287038153	117.230074276020	325.450340188645	578.575663377404	127.472292713065	344.926949497270	656.509148134606	31.065838931546	327.971148999518	729.170680300761	1087.686643901159	189.141673195047	871.075913784002	865.214440956558	179.490147248584	721.432705921282	1089.969868486672	784.105672735052	830.486531803661	852.679185373624	791.438544399404	
